<?xml version="1.0" standalone="no"?>
<!DOCTYPE svg PUBLIC "-//W3C//DTD SVG 20010904//EN"
 "http://www.w3.org/TR/2001/REC-SVG-20010904/DTD/svg10.dtd">
<svg version="1.0" xmlns="http://www.w3.org/2000/svg"
 width="1889.000000pt" height="1889.000000pt" viewBox="0 0 1889.000000 1889.000000"
 preserveAspectRatio="xMidYMid meet">
<metadata>
Created by potrace 1.11, written by Peter Selinger 2001-2013
</metadata>
<g transform="translate(0.000000,1889.000000) scale(0.100000,-0.100000)"
fill="#000000" stroke="none">
<path d="M4288 13975 c-1 -2 -39 -6 -83 -9 -44 -4 -96 -8 -115 -11 -19 -2 -60
-7 -90 -10 -30 -3 -62 -8 -70 -10 -8 -2 -35 -7 -60 -9 -60 -7 -229 -41 -354
-72 -56 -13 -110 -27 -121 -29 -42 -10 -251 -76 -265 -84 -9 -5 -31 -12 -50
-16 -19 -4 -39 -11 -45 -14 -5 -4 -39 -18 -74 -30 -80 -29 -302 -128 -401
-179 -436 -226 -787 -480 -1120 -812 -173 -173 -198 -200 -322 -352 -156 -190
-321 -431 -437 -638 -38 -67 -194 -377 -196 -390 -1 -3 -9 -23 -19 -45 -85
-190 -223 -613 -251 -775 -3 -18 -8 -37 -10 -40 -3 -4 -7 -25 -11 -46 -3 -22
-9 -55 -14 -74 -4 -19 -12 -57 -16 -85 -4 -27 -9 -57 -10 -65 -2 -8 -6 -37 -9
-65 -3 -27 -8 -61 -10 -75 -2 -14 -7 -56 -11 -95 -4 -38 -8 -86 -11 -105 -8
-72 -10 -598 -3 -690 14 -164 21 -234 25 -250 2 -8 7 -38 10 -67 3 -29 13 -89
21 -135 8 -46 18 -96 20 -113 14 -80 89 -366 130 -495 140 -440 389 -934 638
-1266 17 -23 40 -54 51 -70 21 -28 141 -180 160 -201 5 -6 32 -37 60 -70 86
-101 355 -364 475 -464 286 -239 558 -418 890 -584 191 -96 330 -153 590 -245
84 -30 344 -100 440 -119 30 -6 66 -14 80 -17 51 -10 136 -25 175 -29 22 -3
50 -8 63 -10 12 -3 41 -8 65 -10 23 -3 58 -7 77 -9 222 -27 844 -28 950 -1 8
2 46 7 85 10 38 4 72 8 75 10 3 2 34 6 70 10 35 3 67 8 70 10 3 2 23 6 45 9
22 4 56 11 75 16 19 5 49 11 65 13 66 10 319 81 474 133 693 234 1324 645
1836 1196 190 204 362 431 537 708 110 175 299 556 333 672 46 161 33 315 -43
468 -51 106 -169 223 -272 272 -41 20 -91 39 -110 44 -19 4 -42 9 -50 12 -8 2
-51 5 -95 7 -162 8 -317 -48 -433 -157 -88 -83 -109 -116 -195 -304 -35 -76
-85 -177 -112 -224 -26 -47 -53 -94 -59 -105 -6 -11 -32 -53 -58 -93 -245
-375 -536 -673 -915 -935 -45 -31 -84 -57 -87 -57 -3 0 -24 -13 -48 -29 -151
-101 -600 -301 -737 -327 -14 -3 -28 -7 -33 -10 -4 -3 -16 -7 -25 -9 -10 -2
-56 -13 -103 -25 -47 -12 -94 -23 -105 -25 -11 -1 -58 -10 -105 -18 -173 -33
-293 -42 -550 -42 -191 0 -358 8 -422 20 -12 3 -40 7 -63 11 -87 12 -284 55
-370 80 -49 14 -94 27 -100 29 -5 1 -17 4 -25 7 -8 3 -44 16 -80 28 -498 169
-1009 518 -1359 926 -117 136 -130 153 -215 274 -223 317 -395 694 -492 1080
-30 121 -27 107 -47 230 -58 349 -65 687 -22 990 14 96 28 187 30 200 84 403
219 752 418 1078 55 91 183 276 209 304 7 7 40 47 73 88 70 89 279 300 387
393 399 342 901 590 1413 698 105 22 113 23 185 33 25 4 56 9 70 11 130 21
458 32 615 20 248 -18 387 -39 605 -91 419 -100 823 -295 1150 -554 159 -125
315 -286 545 -560 44 -52 82 -97 85 -100 19 -19 131 -157 344 -425 312 -393
340 -428 526 -670 85 -110 156 -202 160 -205 3 -3 24 -30 45 -60 22 -30 45
-62 52 -70 7 -8 49 -62 93 -120 44 -58 83 -109 88 -115 4 -5 64 -84 132 -175
69 -91 127 -167 130 -170 3 -3 30 -39 60 -80 30 -41 57 -77 60 -80 3 -3 100
-131 215 -285 116 -154 215 -286 222 -295 7 -8 44 -58 82 -110 39 -52 74 -99
79 -105 16 -20 539 -722 577 -775 22 -30 42 -57 45 -60 3 -3 30 -40 60 -83
145 -204 490 -661 520 -687 3 -3 21 -25 40 -50 19 -24 42 -52 50 -60 8 -9 40
-45 70 -80 159 -184 235 -265 451 -480 226 -225 227 -225 364 -334 61 -48 118
-94 128 -102 10 -8 66 -46 125 -86 431 -286 901 -478 1447 -591 112 -24 136
-28 233 -43 20 -3 46 -7 58 -9 11 -2 52 -6 90 -10 38 -4 78 -9 88 -11 140 -26
792 -25 961 1 17 2 50 7 75 10 25 3 70 9 100 15 30 5 71 12 90 14 232 30 648
154 965 289 732 312 1470 893 1944 1530 175 235 260 378 292 492 23 81 19 266
-8 350 -67 212 -265 390 -476 426 -110 18 -251 5 -342 -34 -142 -59 -218 -131
-342 -320 -128 -198 -237 -330 -423 -517 -584 -583 -1313 -947 -2040 -1017
-99 -9 -558 -9 -645 1 -137 15 -206 24 -250 33 -16 3 -40 7 -52 9 -12 1 -66
12 -120 24 -457 101 -868 298 -1178 564 -87 75 -361 348 -480 480 -50 55 -97
107 -106 116 -96 101 -365 449 -649 840 -140 192 -407 553 -433 585 -9 12
-114 150 -142 189 -27 36 -461 615 -483 643 -9 13 -93 124 -187 249 -180 239
-527 699 -548 724 -7 8 -41 53 -77 100 -36 47 -70 92 -77 100 -6 8 -116 150
-244 315 -199 257 -610 777 -676 855 -12 14 -83 99 -158 190 -312 374 -480
550 -715 750 -269 229 -654 466 -990 609 -41 18 -88 38 -105 45 -72 32 -299
111 -390 137 -83 24 -327 86 -370 93 -16 3 -43 8 -60 11 -16 3 -64 12 -105 20
-41 8 -133 21 -205 29 -71 8 -152 18 -180 22 -51 6 -661 15 -667 9z"/>
<path d="M14019 13976 c-2 -2 -47 -7 -99 -10 -52 -4 -108 -9 -125 -11 -62 -8
-131 -17 -155 -20 -105 -16 -172 -28 -234 -41 -39 -9 -82 -18 -96 -20 -14 -3
-33 -7 -42 -10 -9 -3 -25 -6 -35 -8 -121 -24 -412 -117 -610 -196 -236 -94
-553 -260 -778 -408 -85 -55 -313 -220 -335 -241 -9 -9 -38 -34 -65 -56 -110
-87 -347 -312 -440 -416 -103 -116 -208 -242 -293 -354 -115 -150 -304 -450
-381 -605 -18 -36 -36 -72 -41 -80 -32 -53 -94 -203 -110 -263 -27 -105 -22
-257 13 -355 88 -250 311 -416 566 -421 180 -4 326 54 452 181 69 68 84 91
145 215 91 186 169 321 271 472 47 69 89 128 92 131 3 3 32 37 63 76 318 399
791 754 1259 947 203 84 469 164 639 193 31 5 133 21 180 28 190 29 507 34
740 11 140 -13 357 -52 480 -85 41 -12 82 -22 90 -24 40 -10 235 -78 312 -110
284 -115 562 -279 803 -473 105 -84 345 -314 416 -399 90 -106 120 -145 194
-248 182 -253 333 -547 438 -856 37 -108 89 -302 102 -377 l7 -43 -1544 0
c-848 -1 -1561 -3 -1583 -6 -96 -13 -200 -56 -280 -115 -165 -122 -253 -300
-253 -510 0 -203 95 -385 263 -503 75 -53 121 -74 210 -97 66 -18 168 -19
1993 -19 2154 0 2005 -5 2157 73 112 57 208 155 264 268 64 129 74 197 67 429
-4 107 -8 209 -10 225 -2 17 -6 62 -10 100 -7 71 -32 253 -40 290 -2 11 -7 40
-11 65 -35 216 -161 663 -229 815 -8 17 -26 62 -41 100 -85 217 -248 520 -410
765 -320 483 -720 890 -1200 1222 -92 64 -292 188 -302 188 -3 0 -14 6 -22 14
-17 15 -252 135 -366 187 -233 106 -648 245 -814 274 -19 3 -37 8 -41 10 -4 2
-22 7 -41 10 -19 3 -41 8 -49 10 -16 4 -29 7 -145 25 -83 13 -101 16 -225 30
-52 6 -111 13 -130 16 -39 6 -625 15 -631 10z"/>
</g>
</svg>
